<svg width="24" height="24" viewBox="0 0 24 24" fill="none" xmlns="http://www.w3.org/2000/svg">
<path d="M0 8C0 3.58172 3.58172 0 8 0H16C20.4183 0 24 3.58172 24 8V16C24 20.4183 20.4183 24 16 24H8C3.58172 24 0 20.4183 0 16V8Z" fill="#171717"/>
<g clip-path="url(#clip0_2380_4289)">
<path d="M12 8.25C12 10.3211 10.3553 12 8.32655 12H4.65308V8.25C4.65308 6.17893 6.29774 4.5 8.32655 4.5C10.3553 4.5 12 6.17893 12 8.25Z" fill="white"/>
<path d="M12 15.75C12 13.6789 13.6447 12 15.6735 12H19.3469V15.75C19.3469 17.8211 17.7023 19.5 15.6735 19.5C13.6447 19.5 12 17.8211 12 15.75Z" fill="white"/>
<path d="M4.65308 15.75C4.65308 17.8211 6.29774 19.5 8.32655 19.5H12V15.75C12 13.6789 10.3553 12 8.32655 12C6.29774 12 4.65308 13.6789 4.65308 15.75Z" fill="white"/>
<path d="M19.3469 8.25C19.3469 6.17893 17.7023 4.5 15.6735 4.5H12V8.25C12 10.3211 13.6447 12 15.6735 12C17.7023 12 19.3469 10.3211 19.3469 8.25Z" fill="white"/>
</g>
<defs>
<clipPath id="clip0_2380_4289">
<rect width="16" height="16" fill="white" transform="translate(4 4)"/>
</clipPath>
</defs>
</svg>
