<svg width="96" height="28" viewBox="0 0 96 28" fill="none" xmlns="http://www.w3.org/2000/svg">
<path d="M0 10C0 5.58172 3.58172 2 8 2H16C20.4183 2 24 5.58172 24 10V18C24 22.4183 20.4183 26 16 26H8C3.58172 26 0 22.4183 0 18V10Z" fill="#171717"/>
<g clip-path="url(#clip0_2262_2187)">
<path d="M12 10.25C12 12.3211 10.3553 14 8.32655 14H4.65308V10.25C4.65308 8.17893 6.29774 6.5 8.32655 6.5C10.3553 6.5 12 8.17893 12 10.25Z" fill="white"/>
<path d="M12 17.75C12 15.6789 13.6447 14 15.6735 14H19.3469V17.75C19.3469 19.8211 17.7023 21.5 15.6735 21.5C13.6447 21.5 12 19.8211 12 17.75Z" fill="white"/>
<path d="M4.65308 17.75C4.65308 19.8211 6.29774 21.5 8.32655 21.5H12V17.75C12 15.6789 10.3553 14 8.32655 14C6.29774 14 4.65308 15.6789 4.65308 17.75Z" fill="white"/>
<path d="M19.3469 10.25C19.3469 8.17893 17.7023 6.5 15.6735 6.5H12V10.25C12 12.3211 13.6447 14 15.6735 14C17.7023 14 19.3469 12.3211 19.3469 10.25Z" fill="white"/>
</g>
<path d="M33.1378 21V7.90909H38.3026C39.2912 7.90909 40.1349 8.08594 40.8338 8.43963C41.5369 8.78906 42.0717 9.28551 42.4382 9.92898C42.8089 10.5682 42.9943 11.3203 42.9943 12.1854C42.9943 13.0547 42.8068 13.8026 42.4318 14.429C42.0568 15.0511 41.5135 15.5284 40.8018 15.8608C40.0945 16.1932 39.2379 16.3594 38.2322 16.3594H34.7741V14.1349H37.7848C38.3132 14.1349 38.7521 14.0625 39.1016 13.9176C39.451 13.7727 39.7109 13.5554 39.8814 13.2656C40.0561 12.9759 40.1435 12.6158 40.1435 12.1854C40.1435 11.7507 40.0561 11.3842 39.8814 11.0859C39.7109 10.7876 39.4489 10.5618 39.0952 10.4084C38.7457 10.2507 38.3047 10.1719 37.772 10.1719H35.9055V21H33.1378ZM40.2074 15.0426L43.4609 21H40.4055L37.2223 15.0426H40.2074ZM49.177 21.1918C48.1841 21.1918 47.3255 20.9808 46.601 20.5589C45.8809 20.1328 45.3248 19.5405 44.9327 18.782C44.5407 18.0192 44.3446 17.1349 44.3446 16.1293C44.3446 15.1151 44.5407 14.2287 44.9327 13.4702C45.3248 12.7074 45.8809 12.1151 46.601 11.6932C47.3255 11.267 48.1841 11.054 49.177 11.054C50.1699 11.054 51.0265 11.267 51.7466 11.6932C52.4711 12.1151 53.0293 12.7074 53.4213 13.4702C53.8134 14.2287 54.0094 15.1151 54.0094 16.1293C54.0094 17.1349 53.8134 18.0192 53.4213 18.782C53.0293 19.5405 52.4711 20.1328 51.7466 20.5589C51.0265 20.9808 50.1699 21.1918 49.177 21.1918ZM49.1898 19.0824C49.6415 19.0824 50.0186 18.9545 50.3212 18.6989C50.6238 18.4389 50.8517 18.0852 51.0051 17.6378C51.1628 17.1903 51.2417 16.6811 51.2417 16.1101C51.2417 15.5391 51.1628 15.0298 51.0051 14.5824C50.8517 14.1349 50.6238 13.7812 50.3212 13.5213C50.0186 13.2614 49.6415 13.1314 49.1898 13.1314C48.7338 13.1314 48.3503 13.2614 48.0392 13.5213C47.7324 13.7812 47.5002 14.1349 47.3425 14.5824C47.1891 15.0298 47.1124 15.5391 47.1124 16.1101C47.1124 16.6811 47.1891 17.1903 47.3425 17.6378C47.5002 18.0852 47.7324 18.4389 48.0392 18.6989C48.3503 18.9545 48.7338 19.0824 49.1898 19.0824ZM64.617 11.1818L61.1845 21H58.1163L54.6838 11.1818H57.5602L59.5993 18.2067H59.7015L61.7342 11.1818H64.617ZM66.0105 21V11.1818H68.7335V21H66.0105ZM67.3784 9.91619C66.9735 9.91619 66.6262 9.78196 66.3365 9.51349C66.051 9.24077 65.9082 8.91477 65.9082 8.53551C65.9082 8.16051 66.051 7.83878 66.3365 7.57031C66.6262 7.29758 66.9735 7.16122 67.3784 7.16122C67.7832 7.16122 68.1284 7.29758 68.4139 7.57031C68.7037 7.83878 68.8485 8.16051 68.8485 8.53551C68.8485 8.91477 68.7037 9.24077 68.4139 9.51349C68.1284 9.78196 67.7832 9.91619 67.3784 9.91619ZM75.3892 21.1918C74.3793 21.1918 73.5099 20.9872 72.7812 20.5781C72.0568 20.1648 71.4986 19.581 71.1065 18.8267C70.7145 18.0682 70.5185 17.1712 70.5185 16.1357C70.5185 15.1257 70.7145 14.2393 71.1065 13.4766C71.4986 12.7138 72.0504 12.1193 72.7621 11.6932C73.478 11.267 74.3175 11.054 75.2805 11.054C75.9283 11.054 76.5313 11.1584 77.0895 11.3672C77.652 11.5717 78.142 11.8807 78.5597 12.294C78.9815 12.7074 79.3097 13.2273 79.544 13.8537C79.7784 14.4759 79.8956 15.2045 79.8956 16.0398V16.7876H71.6051V15.1001H77.3324C77.3324 14.7081 77.2472 14.3608 77.0767 14.0582C76.9063 13.7557 76.6697 13.5192 76.3672 13.3487C76.0689 13.174 75.7216 13.0866 75.3253 13.0866C74.9119 13.0866 74.5455 13.1825 74.2259 13.3743C73.9105 13.5618 73.6634 13.8153 73.4844 14.1349C73.3054 14.4503 73.2138 14.8018 73.2095 15.1896V16.794C73.2095 17.2798 73.299 17.6996 73.478 18.0533C73.6612 18.407 73.919 18.6797 74.2514 18.8714C74.5838 19.0632 74.978 19.1591 75.4339 19.1591C75.7365 19.1591 76.0135 19.1165 76.2649 19.0312C76.5163 18.946 76.7315 18.8182 76.9105 18.6477C77.0895 18.4773 77.2259 18.2685 77.3196 18.0213L79.8381 18.1875C79.7102 18.7926 79.4482 19.321 79.0518 19.7727C78.6598 20.2202 78.1527 20.5696 77.5305 20.821C76.9126 21.0682 76.1989 21.1918 75.3892 21.1918ZM81.6726 21V11.1818H84.3125V12.8949H84.4148C84.5938 12.2855 84.8942 11.8253 85.3161 11.5142C85.7379 11.1989 86.2237 11.0412 86.7734 11.0412C86.9098 11.0412 87.0568 11.0497 87.2145 11.0668C87.3722 11.0838 87.5107 11.1072 87.63 11.1371V13.5533C87.5021 13.5149 87.3253 13.4808 87.0994 13.451C86.8736 13.4212 86.6669 13.4062 86.4794 13.4062C86.0788 13.4062 85.7209 13.4936 85.4055 13.6683C85.0945 13.8388 84.8473 14.0774 84.6641 14.3842C84.4851 14.6911 84.3956 15.0447 84.3956 15.4453V21H81.6726ZM89.0378 21V11.1818H91.6777V12.8949H91.78C91.959 12.2855 92.2594 11.8253 92.6813 11.5142C93.1032 11.1989 93.589 11.0412 94.1387 11.0412C94.275 11.0412 94.4221 11.0497 94.5797 11.0668C94.7374 11.0838 94.8759 11.1072 94.9952 11.1371V13.5533C94.8674 13.5149 94.6905 13.4808 94.4647 13.451C94.2388 13.4212 94.0321 13.4062 93.8446 13.4062C93.4441 13.4062 93.0861 13.4936 92.7708 13.6683C92.4597 13.8388 92.2125 14.0774 92.0293 14.3842C91.8503 14.6911 91.7608 15.0447 91.7608 15.4453V21H89.0378Z" fill="#0A0A0A"/>
<defs>
<clipPath id="clip0_2262_2187">
<rect width="16" height="16" fill="white" transform="translate(4 6)"/>
</clipPath>
</defs>
</svg>
